<svg id="Layer_1" data-name="Layer 1" xmlns="http://www.w3.org/2000/svg" viewBox="0 0 128 128"><defs><style>.cls-1{fill:none;}</style></defs><g id="ARC"><path d="M14.45874,39.04529a59.48,59.48,0,0,0,0,49.90942L24.82491,78.58854a46.0004,46.0004,0,0,1,0-29.17708Z"/></g><g id="ARC-2" data-name="ARC"><path d="M113.27287,24.89972a59.47994,59.47994,0,0,0-89.64444,0h20.59a46.00032,46.00032,0,0,1,48.46436,0Z"/></g><g id="LINE"><path d="M44.21847,103.10028h-20.59a59.47994,59.47994,0,0,0,89.64444,0h-20.59A46.00032,46.00032,0,0,1,44.21847,103.10028Z"/></g><g id="LINE-2" data-name="LINE"><path d="M49.26128,31.79977,87.7297,70.26819V31.79977h30.731q.28831.44777.56856.90064L106.12983,45.59987V82.40013l12.89946,12.89946q-.28025.45287-.56856.90064H87.64L49.1716,57.73181V96.20023h-30.731q-.28831-.44777-.56856-.90064L30.77147,82.40013V45.59987L17.872,32.70041q.28025-.45286.56856-.90064Z"/></g><rect class="cls-1" width="128" height="128"/></svg>