<svg width="137" height="39" viewBox="0 0 137 39" fill="none" xmlns="http://www.w3.org/2000/svg">
<rect y="-9.15527e-05" width="137" height="39.0001" rx="19.5001" fill="#C0985B"/>
<g clip-path="url(#clip0_3105_7)">
<path d="M17.4784 18.8797L17.4503 18.8886C17.3627 18.9186 17.2827 18.9645 17.2151 19.0236L17.1935 19.0433C17.1286 19.105 17.0783 19.1781 17.0454 19.2581L17.0355 19.2838C16.9895 19.4118 16.9895 19.5499 17.0355 19.678L17.0454 19.7037C17.0783 19.7837 17.1286 19.8568 17.1935 19.9184L17.2151 19.9377C17.2828 19.9969 17.3629 20.0428 17.4506 20.0728L17.4788 20.0818C17.5209 20.0945 17.5644 20.1035 17.6084 20.1085L41.7098 23.2819C41.7222 23.2835 41.7346 23.2848 41.7468 23.2858C42.4676 23.3742 42.9212 23.4114 43.3856 23.2918C43.8742 23.1658 44.2502 22.902 44.7865 22.3922L47.0391 20.2535C47.0777 20.2168 47.1114 20.1761 47.1395 20.1322L55.5114 20.1322L62.3445 24.2363C62.4578 24.3041 62.5904 24.3402 62.7258 24.34C62.8613 24.3398 62.9938 24.3034 63.1068 24.2352L63.1068 24.2363L66.0669 22.4405L69.0568 24.2363C69.17 24.3041 69.3026 24.3402 69.4381 24.34C69.5736 24.3398 69.706 24.3034 69.8191 24.2352L69.8199 24.2363L76.5848 20.1322L79.882 20.1322C84.468 20.2795 87.9201 20.8533 90.6656 21.8299C93.3883 22.7983 95.4214 24.1695 97.1889 25.9187C98.3013 27.0193 98.4798 27.016 99.7873 26.9925C99.8941 26.9906 100.015 26.9884 100.366 26.9884L117.816 26.9884C118.497 26.9884 119.061 26.879 119.488 26.603C119.973 26.2892 120.235 25.817 120.235 25.1302L120.235 24.2811C120.235 23.8982 120.162 23.5945 119.988 23.3099C119.822 23.0387 119.581 22.8217 119.237 22.5989L114.438 19.4995L119.238 16.3985C119.582 16.1762 119.823 15.9592 119.989 15.6875C120.163 15.403 120.236 15.0991 120.236 14.7164L120.236 13.8672C120.236 13.1804 119.973 12.7083 119.488 12.3944C119.061 12.1187 118.498 12.009 117.817 12.009L100.367 12.009C100.016 12.009 99.895 12.0069 99.7883 12.0048C98.4808 11.9812 98.3023 11.978 97.19 13.0786C95.422 14.8278 93.389 16.1983 90.6667 17.1674C87.9212 18.144 84.4692 18.7179 79.8832 18.8651L76.6298 18.8651L69.7965 14.7611C69.6832 14.6932 69.5507 14.6571 69.4152 14.6573C69.2797 14.6575 69.1472 14.6939 69.0342 14.7621L69.0334 14.7611L66.0741 16.5568L63.0842 14.7611C62.971 14.6932 62.8384 14.6571 62.7029 14.6573C62.5674 14.6575 62.435 14.6939 62.3219 14.7621L62.3211 14.7611L55.5562 18.8651L47.1605 18.8651C47.129 18.8069 47.0878 18.7535 47.0385 18.7068L44.7859 16.5682C44.2495 16.059 43.8736 15.7952 43.385 15.6693C42.921 15.5497 42.4672 15.5868 41.7462 15.6752C41.7339 15.6762 41.7215 15.6775 41.7091 15.6791L17.6081 18.853C17.564 18.858 17.5206 18.8669 17.4784 18.8797V18.8797ZM95.8856 15.9098L117.601 15.9098L113.026 18.8656L89.5189 18.8656C90.095 18.7068 90.6458 18.5339 91.1712 18.3467C92.9928 17.6987 94.5283 16.8843 95.8856 15.9098V15.9098ZM118.747 15.1174L96.9109 15.1174C97.3612 14.7433 97.793 14.3494 98.2109 13.9359C98.9013 13.2527 99.0045 13.2546 99.7611 13.2684C99.9956 13.2726 100.264 13.2774 100.367 13.2774L117.816 13.2774C118.221 13.2774 118.52 13.3193 118.684 13.4251C118.789 13.4928 118.846 13.6329 118.846 13.8677L118.846 14.7168C118.846 14.8826 118.825 14.9955 118.777 15.0737C118.768 15.0888 118.758 15.1033 118.747 15.1173L118.747 15.1174ZM58.0279 20.1335L62.2243 20.1335L64.8089 21.6861L62.7213 22.9525L58.0279 20.1335ZM64.7411 20.1335L67.3678 20.1335L66.061 20.9262L64.7411 20.1335ZM69.8724 20.1335L74.0808 20.1335L69.435 22.9523L67.3202 21.6822L69.873 20.1335L69.8724 20.1335ZM74.1129 18.8656L69.9166 18.8656L67.332 17.313L69.4195 16.0465L74.1129 18.8656ZM67.3997 18.8656L64.7731 18.8656L66.0798 18.0729L67.3997 18.8656ZM62.2685 18.8656L58.06 18.8656L62.7059 16.0468L64.8207 17.3169L62.2678 18.8656L62.2685 18.8656ZM96.9109 23.8816L118.747 23.8816C118.758 23.8956 118.768 23.9101 118.778 23.9252C118.825 24.0034 118.846 24.1163 118.846 24.2821L118.846 25.1313C118.846 25.366 118.789 25.5061 118.684 25.5738C118.52 25.6796 118.221 25.7215 117.816 25.7215L100.367 25.7215C100.264 25.7215 99.9956 25.7263 99.7611 25.7305C99.0045 25.7443 98.9019 25.7462 98.2109 25.0631C97.793 24.6495 97.3612 24.2556 96.9109 23.8815L96.9109 23.8816ZM117.601 23.0892L95.8856 23.0892C94.5278 22.1147 92.9928 21.3004 91.1712 20.6524C90.645 20.4653 90.0943 20.2923 89.5189 20.1335L113.026 20.1335L117.601 23.0892V23.0892ZM45.8512 19.4055C45.8462 19.4366 45.8436 19.4681 45.8436 19.4995C45.8436 19.5201 45.8449 19.5406 45.8469 19.5608L43.7865 21.5168C43.4305 21.8548 43.2138 22.0214 43.0103 22.0739C42.7925 22.1301 42.4674 22.099 41.9306 22.0333L41.905 22.0294L22.5507 19.4811L41.905 16.9327C41.9136 16.9315 41.9222 16.9302 41.9308 16.9287C42.4674 16.8629 42.7925 16.832 43.0103 16.8881C43.2142 16.9406 43.4305 17.1072 43.7865 17.4453L45.8512 19.4055V19.4055Z" fill="white"/>
</g>
<defs>
<clipPath id="clip0_3105_7">
<rect width="15" height="103.235" fill="white" transform="matrix(7.54979e-08 1 1 -7.54979e-08 17 11.9999)"/>
</clipPath>
</defs>
</svg>
