<svg width="138" height="39" viewBox="0 0 138 39" fill="none" xmlns="http://www.w3.org/2000/svg">
<rect x="0.509766" y="0.500122" width="136" height="38.0001" rx="19.0001" fill="white" stroke="#C0985B"/>
<g clip-path="url(#clip0_3083_2)">
<path d="M17.4882 18.8799L17.46 18.8889C17.3724 18.9188 17.2924 18.9648 17.2249 19.0238L17.2033 19.0435C17.1384 19.1052 17.088 19.1783 17.0551 19.2583L17.0453 19.284C16.9992 19.412 16.9992 19.5502 17.0453 19.6782L17.0551 19.7039C17.088 19.7839 17.1384 19.857 17.2033 19.9187L17.2249 19.938C17.2925 19.9971 17.3726 20.0431 17.4604 20.073L17.4885 20.082C17.5307 20.0947 17.5741 20.1037 17.6182 20.1087L41.7195 23.2821C41.7319 23.2837 41.7443 23.285 41.7566 23.2861C42.4773 23.3744 42.9309 23.4116 43.3954 23.292C43.884 23.1661 44.2599 22.9023 44.7963 22.3924L47.0489 20.2537C47.0875 20.2171 47.1212 20.1763 47.1493 20.1324L55.5211 20.1324L62.3543 24.2365C62.4675 24.3043 62.6001 24.3404 62.7356 24.3402C62.8711 24.34 63.0035 24.3036 63.1166 24.2355L63.1166 24.2365L66.0767 22.4407L69.0666 24.2365C69.1798 24.3043 69.3124 24.3404 69.4479 24.3402C69.5833 24.34 69.7158 24.3036 69.8288 24.2355L69.8296 24.2365L76.5945 20.1324L79.8918 20.1324C84.4778 20.2797 87.9299 20.8535 90.6754 21.8301C93.3981 22.7985 95.4311 24.1697 97.1986 25.9189C98.3111 27.0195 98.4896 27.0162 99.7971 26.9927C99.9038 26.9908 100.025 26.9886 100.376 26.9886L117.826 26.9886C118.507 26.9886 119.07 26.8792 119.497 26.6032C119.983 26.2894 120.245 25.8172 120.245 25.1305L120.245 24.2813C120.245 23.8984 120.172 23.5947 119.998 23.3101C119.832 23.0389 119.591 22.8219 119.247 22.5991L114.448 19.4997L119.247 16.3987C119.591 16.1765 119.832 15.9594 119.998 15.6877C120.173 15.4032 120.246 15.0994 120.246 14.7166L120.246 13.8674C120.246 13.1807 119.983 12.7085 119.498 12.3946C119.071 12.1189 118.508 12.0092 117.827 12.0092L100.377 12.0092C100.026 12.0092 99.9048 12.0071 99.798 12.005C98.4905 11.9814 98.312 11.9782 97.1997 13.0788C95.4318 14.828 93.3987 16.1985 90.6765 17.1677C87.931 18.1442 84.4789 18.7181 79.8929 18.8654L76.6396 18.8654L69.8062 14.7613C69.693 14.6934 69.5604 14.6573 69.4249 14.6575C69.2894 14.6577 69.157 14.6941 69.044 14.7623L69.0432 14.7613L66.0838 16.5571L63.094 14.7613C62.9807 14.6934 62.8482 14.6573 62.7127 14.6575C62.5772 14.6577 62.4447 14.6941 62.3317 14.7623L62.3309 14.7613L55.566 18.8654L47.1703 18.8654C47.1388 18.8072 47.0976 18.7538 47.0482 18.707L44.7956 16.5684C44.2593 16.0592 43.8833 15.7954 43.3947 15.6695C42.9308 15.5499 42.477 15.587 41.756 15.6754C41.7437 15.6764 41.7313 15.6777 41.7189 15.6793L17.6179 18.8532C17.5738 18.8582 17.5304 18.8671 17.4882 18.8799ZM95.8954 15.91L117.611 15.91L113.036 18.8658L89.5287 18.8658C90.1048 18.707 90.6555 18.5341 91.181 18.3469C93.0026 17.6989 94.5381 16.8846 95.8954 15.91ZM118.757 15.1176L96.9207 15.1176C97.3709 14.7436 97.8027 14.3496 98.2207 13.9361C98.911 13.2529 99.0143 13.2548 99.7708 13.2686C100.005 13.2728 100.274 13.2776 100.377 13.2776L117.826 13.2776C118.231 13.2776 118.53 13.3195 118.694 13.4253C118.799 13.4931 118.855 13.6331 118.855 13.8679L118.855 14.717C118.855 14.8829 118.835 14.9957 118.787 15.074C118.778 15.089 118.768 15.1035 118.757 15.1175L118.757 15.1176ZM58.0377 20.1337L62.234 20.1337L64.8187 21.6863L62.7311 22.9528L58.0377 20.1337ZM64.7509 20.1337L67.3775 20.1337L66.0708 20.9264L64.7509 20.1337ZM69.8821 20.1337L74.0906 20.1337L69.4447 22.9525L67.3299 21.6824L69.8828 20.1337L69.8821 20.1337ZM74.1227 18.8658L69.9264 18.8658L67.3417 17.3132L69.4293 16.0467L74.1227 18.8658ZM67.4095 18.8658L64.7829 18.8658L66.0896 18.0731L67.4095 18.8658ZM62.2782 18.8658L58.0698 18.8658L62.7156 16.047L64.8304 17.3171L62.2776 18.8658L62.2782 18.8658ZM96.9207 23.8818L118.757 23.8818C118.768 23.8958 118.778 23.9103 118.787 23.9254C118.835 24.0036 118.855 24.1165 118.855 24.2823L118.855 25.1315C118.855 25.3662 118.799 25.5063 118.694 25.574C118.53 25.6798 118.231 25.7217 117.826 25.7217L100.377 25.7217C100.274 25.7217 100.005 25.7265 99.7708 25.7307C99.0143 25.7445 98.9117 25.7464 98.2207 25.0633C97.8027 24.6497 97.3709 24.2558 96.9207 23.8817L96.9207 23.8818ZM117.611 23.0894L95.8954 23.0894C94.5376 22.1149 93.0026 21.3006 91.181 20.6526C90.6548 20.4655 90.104 20.2925 89.5287 20.1337L113.036 20.1337L117.611 23.0894ZM45.861 19.4057C45.8559 19.4369 45.8534 19.4683 45.8534 19.4997C45.8534 19.5204 45.8546 19.5408 45.8567 19.561L43.7963 21.517C43.4402 21.8551 43.2235 22.0216 43.02 22.0742C42.8022 22.1303 42.4772 22.0993 41.9404 22.0335L41.9147 22.0296L22.5604 19.4813L41.9147 16.9329C41.9233 16.9317 41.9319 16.9304 41.9405 16.929C42.4772 16.8631 42.8022 16.8322 43.02 16.8883C43.224 16.9409 43.4402 17.1074 43.7963 17.4455L45.861 19.4057Z" fill="#C0985B"/>
</g>
<defs>
<clipPath id="clip0_3083_2">
<rect width="15" height="103.235" fill="white" transform="matrix(7.54979e-08 1 1 -7.54979e-08 17.0098 12.0001)"/>
</clipPath>
</defs>
</svg>
