<svg width="202" height="103" viewBox="0 0 202 103" fill="none" xmlns="http://www.w3.org/2000/svg">
<g filter="url(#filter0_d_2879_95)">
<rect x="169.01" y="71.0001" width="137" height="39.0001" rx="19.5001" transform="rotate(180 169.01 71.0001)" fill="#C0985B"/>
</g>
<g clip-path="url(#clip0_2879_95)">
<path d="M151.531 52.1204L151.559 52.1114C151.647 52.0814 151.727 52.0355 151.795 51.9764L151.816 51.9567C151.881 51.895 151.932 51.8219 151.964 51.7419L151.974 51.7163C152.02 51.5882 152.02 51.4501 151.974 51.322L151.964 51.2963C151.932 51.2163 151.881 51.1432 151.816 51.0816L151.795 51.0623C151.727 51.0031 151.647 50.9572 151.559 50.9272L151.531 50.9182C151.489 50.9055 151.445 50.8966 151.401 50.8915L127.3 47.7181C127.288 47.7165 127.275 47.7152 127.263 47.7142C126.542 47.6258 126.089 47.5887 125.624 47.7082C125.136 47.8342 124.76 48.098 124.223 48.6079L121.971 50.7465C121.932 50.7832 121.898 50.8239 121.87 50.8678L113.498 50.8678L106.665 46.7637C106.552 46.6959 106.419 46.6599 106.284 46.66C106.148 46.6602 106.016 46.6966 105.903 46.7648L105.903 46.7637L102.943 48.5595L99.953 46.7637C99.8397 46.6959 99.7072 46.6599 99.5717 46.66C99.4362 46.6602 99.3037 46.6966 99.1907 46.7648L99.1899 46.7637L92.425 50.8678L89.1277 50.8678C84.5417 50.7206 81.0897 50.1467 78.3442 49.1701C75.6214 48.2017 73.5884 46.8305 71.8209 45.0813C70.7085 43.9807 70.53 43.984 69.2224 44.0075C69.1157 44.0094 68.9946 44.0116 68.6438 44.0116L51.1935 44.0116C50.5123 44.0116 49.9491 44.121 49.5221 44.397C49.0365 44.7108 48.7743 45.183 48.7743 45.8698L48.7743 46.7189C48.7743 47.1018 48.8473 47.4055 49.0215 47.6901C49.1876 47.9613 49.4285 48.1784 49.7727 48.4011L54.5719 51.5005L49.7722 54.6015C49.428 54.8238 49.1872 55.0408 49.0211 55.3125C48.8468 55.597 48.7738 55.9009 48.7738 56.2836L48.7738 57.1328C48.7738 57.8196 49.0363 58.2917 49.5216 58.6056C49.9486 58.8813 50.5119 58.991 51.193 58.991L68.6428 58.991C68.9936 58.991 69.1147 58.9932 69.2215 58.9952C70.529 59.0188 70.7075 59.022 71.8198 57.9214C73.5878 56.1722 75.6208 54.8017 78.343 53.8326C81.0885 52.856 84.5406 52.2821 89.1266 52.1349L92.38 52.1349L99.2133 56.239C99.3265 56.3068 99.4591 56.3429 99.5946 56.3427C99.7301 56.3425 99.8626 56.3061 99.9756 56.2379L99.9764 56.239L102.936 54.4432L105.926 56.239C106.039 56.3068 106.171 56.3429 106.307 56.3427C106.442 56.3425 106.575 56.3061 106.688 56.2379L106.689 56.239L113.454 52.1349L121.849 52.1349C121.881 52.1931 121.922 52.2465 121.971 52.2932L124.224 54.4318C124.76 54.941 125.136 55.2048 125.625 55.3308C126.089 55.4503 126.543 55.4132 127.264 55.3248C127.276 55.3238 127.288 55.3225 127.301 55.3209L151.402 52.1471C151.446 52.142 151.489 52.1331 151.531 52.1204ZM73.1241 55.0902L51.4087 55.0902L55.9836 52.1344L79.4908 52.1344C78.9148 52.2932 78.364 52.4661 77.8385 52.6533C76.017 53.3014 74.4814 54.1157 73.1241 55.0902ZM50.2629 55.8826L72.0989 55.8826C71.6486 56.2567 71.2168 56.6506 70.7988 57.0642C70.1085 57.7473 70.0052 57.7454 69.2487 57.7316C69.0142 57.7274 68.7453 57.7226 68.6428 57.7226L51.1935 57.7226C50.7885 57.7226 50.4896 57.6807 50.3259 57.5749C50.221 57.5072 50.1642 57.3671 50.1642 57.1324L50.1642 56.2832C50.1642 56.1174 50.1844 56.0045 50.2323 55.9263C50.2416 55.9112 50.2519 55.8967 50.263 55.8827L50.2629 55.8826ZM110.982 50.8665L106.786 50.8665L104.201 49.3139L106.288 48.0475L110.982 50.8665ZM104.269 50.8665L101.642 50.8665L102.949 50.0738L104.269 50.8665ZM99.1374 50.8665L94.929 50.8665L99.5748 48.0478L101.69 49.3178L99.1368 50.8665L99.1374 50.8665ZM94.8968 52.1344L99.0932 52.1344L101.678 53.687L99.5902 54.9535L94.8968 52.1344ZM101.61 52.1344L104.237 52.1344L102.93 52.9271L101.61 52.1344ZM106.741 52.1344L110.95 52.1344L106.304 54.9532L104.189 53.6831L106.742 52.1344L106.741 52.1344ZM72.0989 47.1184L50.2629 47.1184C50.2517 47.1044 50.2415 47.0899 50.2322 47.0748C50.1844 46.9966 50.1641 46.8837 50.1641 46.7179L50.1641 45.8688C50.1641 45.634 50.2209 45.494 50.3257 45.4262C50.4894 45.3204 50.7884 45.2785 51.1933 45.2785L68.6428 45.2785C68.7453 45.2785 69.0142 45.2737 69.2487 45.2695C70.0052 45.2557 70.1078 45.2538 70.7988 45.937C71.2168 46.3505 71.6486 46.7444 72.0989 47.1185L72.0989 47.1184ZM51.4087 47.9108L73.1241 47.9108C74.4819 48.8853 76.017 49.6996 77.8385 50.3476C78.3647 50.5347 78.9155 50.7077 79.4908 50.8665L55.9836 50.8665L51.4087 47.9108ZM123.159 51.5945C123.164 51.5634 123.166 51.532 123.166 51.5005C123.166 51.4799 123.165 51.4594 123.163 51.4392L125.223 49.4833C125.579 49.1452 125.796 48.9786 125.999 48.9261C126.217 48.8699 126.542 48.901 127.079 48.9667L127.105 48.9706L146.459 51.5189L127.105 54.0674C127.096 54.0685 127.088 54.0698 127.079 54.0713C126.542 54.1371 126.217 54.168 125.999 54.1119C125.796 54.0594 125.579 53.8928 125.223 53.5547L123.159 51.5945Z" fill="white"/>
</g>
<defs>
<filter id="filter0_d_2879_95" x="0.00976562" y="1.52588e-05" width="201" height="103" filterUnits="userSpaceOnUse" color-interpolation-filters="sRGB">
<feFlood flood-opacity="0" result="BackgroundImageFix"/>
<feColorMatrix in="SourceAlpha" type="matrix" values="0 0 0 0 0 0 0 0 0 0 0 0 0 0 0 0 0 0 127 0" result="hardAlpha"/>
<feOffset/>
<feGaussianBlur stdDeviation="16"/>
<feComposite in2="hardAlpha" operator="out"/>
<feColorMatrix type="matrix" values="0 0 0 0 0 0 0 0 0 0 0 0 0 0 0 0 0 0 0.15 0"/>
<feBlend mode="normal" in2="BackgroundImageFix" result="effect1_dropShadow_2879_95"/>
<feBlend mode="normal" in="SourceGraphic" in2="effect1_dropShadow_2879_95" result="shape"/>
</filter>
<clipPath id="clip0_2879_95">
<rect width="15" height="103.235" fill="white" transform="matrix(1.19249e-08 -1 -1 -1.19249e-08 152.01 59.0001)"/>
</clipPath>
</defs>
</svg>
