<svg id="Layer_1" data-name="Layer 1" xmlns="http://www.w3.org/2000/svg" xmlns:xlink="http://www.w3.org/1999/xlink" viewBox="0 0 460.06 459.94"><defs><style>.cls-1{opacity:0.6;fill:url(#radial-gradient);}</style><radialGradient id="radial-gradient" cx="229.37" cy="230.06" fx="-3.277671265547184" fy="-4.960590563680995" r="330.7" gradientTransform="translate(458.74 460.13) rotate(180)" gradientUnits="userSpaceOnUse"><stop offset="0" stop-color="#c0985b"/><stop offset="1" stop-color="#c3c7d5" stop-opacity="0"/></radialGradient></defs><path class="cls-1" d="M-1,460.13h461.1V1.42L458.64,0l-2.46,2.4h-1.51V3.91L2.46,456.06l-1.33-.19v1.51l-2.46,2.46Zm77.87-4.26L211.25,321.49l32.74,19-21.2,21.25-28.7,28.69-65.28,65.46Zm361-101.78L395.94,200.16l18.93-18.61ZM427.1,168.69,454.8,141V376.79Zm-3.91,186.79L369.7,226.33l14.64-14.63Zm-4.1,27.3,1,2.27L343.46,252.5l15.33-15.26Zm-5.36,7.06L323.4,272.61l14.32-14.31Zm-203.87-3.72,15.27-15.32,131.7,54.29Zm141,52.09L180.21,415.76l18-18ZM235.91,360.33l15.58-15.57,133.48,77ZM257,339l14.07-14,114.74,88.29,1.89,1.45Zm119.09,48-94.55-72.52,10.85-10.78ZM301.89,294l11.23-11.29L387.49,379Zm-52.1,40.74-32.93-18.92,97.65-97.55,19,32.79ZM140.35,456.06l27.31-27.31L372,455.87l3,.19Zm235.79-.19.38-3.85a42,42,0,0,1,.82-6l1.32-4.29c.44-1.89.88-3.91,1.45-5.86l1.64-4.54c.76-2,1.51-3.85,2.33-5.61l1.58-3.66,58.48,33.8Zm13.12-40.61,2-3.16c1.26-1.7,2.39-3.27,3.59-4.79l3.16-3.4c1.38-1.52,2.77-3,4.22-4.29l3.6-3.28c1.51-1.26,3.15-2.4,4.79-3.59l3.28-2.34,34.13,58.84Zm65.6,30L420.92,386.5l3.54-1.64c1.7-.82,3.53-1.51,5.55-2.27l4.35-1.57c1.83-.57,3.66-1,5.8-1.52l4.8-.94c1.83-.32,3.84-.63,5.93-.82l4-.38Zm-.19-315.43L339.3,245.25l-18.92-32.92L454.86,78.13Zm.19-114.77-.19,51.71L65.54,455.87h-52Z"/></svg>