<svg id="Layer_1" data-name="Layer 1" xmlns="http://www.w3.org/2000/svg" xmlns:xlink="http://www.w3.org/1999/xlink" viewBox="0 0 50 83.55"><defs><style>.cls-1{fill:none;}.cls-2{clip-path:url(#clip-path);}.cls-3{fill:#c0985b;}</style><clipPath id="clip-path"><rect class="cls-1" width="50" height="83.55"/></clipPath></defs><g class="cls-2"><path class="cls-3" d="M42.18,67.4a.62.62,0,0,1,.14.18.43.43,0,0,1,.06.22.6.6,0,0,1,0,.23.78.78,0,0,1-.11.2.52.52,0,0,1-.19.14.4.4,0,0,1-.22.06.46.46,0,0,1-.23,0,.56.56,0,0,1-.2-.11L20.84,50.69l-4,3.5,33,28.33a.49.49,0,0,1,.14.18.63.63,0,0,1,.07.22.85.85,0,0,1,0,.23.45.45,0,0,1-.12.2.65.65,0,0,1-.18.15.79.79,0,0,1-.22.06.85.85,0,0,1-.23,0,.82.82,0,0,1-.2-.12L15.52,54.64l-.06-.06a.6.6,0,0,1-.14-.43.57.57,0,0,1,.2-.4l4.41-3.83-3.77-3.23-5,4.23a.59.59,0,0,1-.76,0L.21,42.23l-.07-.07A.6.6,0,0,1,0,41.73a.59.59,0,0,1,.21-.4l10.17-8.68a.54.54,0,0,1,.38-.15.52.52,0,0,1,.39.14l5,4.22,3.77-3.22-4.4-3.83a.54.54,0,0,1-.21-.44.43.43,0,0,1,0-.25.51.51,0,0,1,.15-.21L49,.14a.49.49,0,0,1,.2-.11.45.45,0,0,1,.23,0,.43.43,0,0,1,.22.06.49.49,0,0,1,.18.14A.82.82,0,0,1,50,.4a.58.58,0,0,1,0,.23.43.43,0,0,1-.06.22.65.65,0,0,1-.15.18l-33,28.33,4,3.5L41.41,15.27a.59.59,0,0,1,.2-.12.85.85,0,0,1,.23,0,.79.79,0,0,1,.22.06.86.86,0,0,1,.18.14.54.54,0,0,1,.14.43.6.6,0,0,1-.06.23.84.84,0,0,1-.15.18c-6.06,5.16-6.44,8.49-6.9,12.39-.08.7-.16,1.41-.28,2.22a.58.58,0,0,1-.21.36h0l-8.14,6.78,3.94,3.43a.65.65,0,0,1,.15.18.79.79,0,0,1,.06.22.91.91,0,0,1,0,.23.62.62,0,0,1-.12.19l-.06.07-3.94,3.42,8.14,6.78a.86.86,0,0,1,.14.18.43.43,0,0,1,.06.22c.13.79.21,1.49.29,2.17.45,3.9.83,7.23,6.9,12.4Zm1.15-2,.14.12.08.07.08.08.09.07.08.07.08.08.17.14.09.08.09.07.76-.89-.17-.14-.24-.22-.16-.14-.16-.14-.14-.12-.78.87ZM36.91,52.86c0,.39.09.78.13,1.17l1.17-.15c-.05-.38-.09-.77-.14-1.16l-1.16.14Zm.86,4.71c.08.26.17.51.26.75l0,.12.05.12,0,0,.05.11,1.08-.46a10,10,0,0,1-.39-1l-1.12.36Zm2.28,4.3,0,.06,0,.06,0,.06.05.07,0,.06.05.06,0,.07,0,.06.06.07,0,.06.05.07.06.06.05.06,0,.07.05.05.89-.76-.09-.11,0-.06-.06-.07,0-.06-.05-.06,0-.06,0-.06-.05-.06,0-.06-.05-.06,0-.06,0-.06,0-.06,0-.05-.93.71Zm4-43.55.13-.12.16-.14.16-.14.25-.22.17-.14-.77-.89-.08.07-.09.08-.17.14-.09.08-.08.07-.08.07-.08.08-.08.07-.14.12.78.88ZM38,30.11c0-.39.09-.78.14-1.16L37,28.8c-.05.39-.09.78-.14,1.17l1.17.14Zm.81-4.5c.12-.35.25-.7.4-1l-1.09-.46,0,.11,0,.05,0,.12-.05.12q-.13.36-.27.75l1.12.36Zm2.11-3.94,0-.06,0-.06,0-.06,0-.06,0-.06.05-.06,0-.06.05-.06,0-.06,0-.06.05-.06,0-.06.05-.06.09-.11L40.76,20l0,.05-.06.06,0,.07-.06.06,0,.06,0,.07-.05.06-.06.07-.05.06,0,.07-.05.06,0,.06,0,.07,0,.06L40,21l.94.71ZM15.26,45.92l-4.33-3.7a.6.6,0,0,1-.2-.4.58.58,0,0,1,.14-.42l.07-.07,4.32-3.7-4.49-3.78L1.49,41.78l9.28,7.92,4.49-3.78ZM36,21.44,21.73,33.64l4,3.49,8.11-6.76c.1-.64.17-1.3.25-1.95A17.05,17.05,0,0,1,36,21.44Zm-10.24,25-4,3.49L36,62.11a17,17,0,0,1-1.88-7c-.08-.64-.15-1.3-.25-2Zm0-7.75L22,41.78l3.72,3.1,3.58-3.1Zm-.89,7L21.1,42.54l-4,3.39,3.76,3.21Zm-7.77-8,4,3.39,3.74-3.12-4-3.48Zm3.11,4.16-4-3.38-4,3.38,4,3.38Z"/></g></svg>