<svg id="Layer_1" data-name="Layer 1" xmlns="http://www.w3.org/2000/svg" xmlns:xlink="http://www.w3.org/1999/xlink" viewBox="0 0 172 82"><defs><style>.cls-1{fill:none;}.cls-2{clip-path:url(#clip-path);}.cls-3{fill:#111518;}</style><clipPath id="clip-path"><rect class="cls-1" width="172" height="82"/></clipPath></defs><g class="cls-2"><path class="cls-3" d="M11.74,58.83h-1V69.15h1Z"/><path class="cls-3" d="M73.2,81.13H69.88V78.34H73.2v-.69H69.88V75.42h3.34v-.69h-4v7.09h4Z"/><path class="cls-3" d="M84,81.82h.16V74.73H83.5v5.43l-4.71-5.43h-.16v7.09h.74V76.45Z"/><path class="cls-3" d="M154.57,69.15h.23V58.83h-1v7.91l-6.84-7.91h-.22V69.15h1.07V61.34Z"/><path class="cls-3" d="M96.34,69.15h.26l3.64-7.38,1,7.38h1l-1.48-10.32h-.16L96.48,67.3l-4.17-8.47h-.17L90.66,69.15h1l1-7.43Z"/><path class="cls-3" d="M166.37,59.84h2.3v9.31h1V59.84H172v-1h-5.63"/><path class="cls-3" d="M109.58,69.15h.27l3.64-7.38,1,7.38h1L114,58.83h-.17l-4.14,8.47-4.18-8.47h-.16L103.9,69.15h1l1-7.43Z"/><path class="cls-3" d="M114.58,81.13h-3.32V78.34h3.32v-.69h-3.32V75.42h3.34v-.69h-4v7.09h4Z"/><path class="cls-3" d="M60.65,65.08a7.29,7.29,0,0,0-1.83-1.76c-.74-.56-1.19-.9-1.32-1A2.29,2.29,0,0,1,57,61.6a1.46,1.46,0,0,1-.14-.65,1.44,1.44,0,0,1,.09-.51,1.28,1.28,0,0,1,.3-.43,1.4,1.4,0,0,1,1-.37,1.75,1.75,0,0,1,.89.24,4,4,0,0,1,1,1l.81-.64a4.68,4.68,0,0,0-1.33-1.33,2.59,2.59,0,0,0-1.36-.36,2.66,2.66,0,0,0-1.27.32,2.31,2.31,0,0,0-.91.87A2.51,2.51,0,0,0,55.75,61a2.58,2.58,0,0,0,.55,1.62A9.48,9.48,0,0,0,57.92,64a8.66,8.66,0,0,1,1.75,1.62,1.76,1.76,0,0,1,.35,1,1.67,1.67,0,0,1-.93,1.52,2,2,0,0,1-1,.24c-.81,0-1.51-.57-2.13-1.71l-.87.53a4.56,4.56,0,0,0,1.4,1.68,3,3,0,0,0,1.7.5,2.87,2.87,0,0,0,1.12-.19,2.84,2.84,0,0,0,.95-.62,2.63,2.63,0,0,0,.63-.88,2.74,2.74,0,0,0-.27-2.64Z"/><path class="cls-3" d="M22,68.87a5.28,5.28,0,0,0,1.92-1.52l-.81-.61A4.63,4.63,0,0,1,21.51,68a4.59,4.59,0,0,1-2,.43,4.32,4.32,0,0,1-1.74-.3,4.49,4.49,0,0,1-1.49-1,4.14,4.14,0,0,1-1-1.44A4.33,4.33,0,0,1,15,64a4.44,4.44,0,0,1,.58-2.25,4.2,4.2,0,0,1,1.62-1.62,4.59,4.59,0,0,1,2.28-.59,4.76,4.76,0,0,1,2.07.44,4.47,4.47,0,0,1,1.62,1.34l.81-.63a5.07,5.07,0,0,0-1.91-1.62,5.67,5.67,0,0,0-2.59-.58,5.45,5.45,0,0,0-4,1.55,5.21,5.21,0,0,0-1.21,1.73,5.15,5.15,0,0,0-.41,2.08,5.45,5.45,0,0,0,1.31,3.68,5.36,5.36,0,0,0,4.25,1.8A6,6,0,0,0,22,68.87Z"/><path class="cls-3" d="M7.85,69.15h.23V58.83h-1v7.91L.23,58.83H0V69.15H1.06V61.34Z"/><path class="cls-3" d="M56.66,76.4a3.72,3.72,0,0,0-.5,1.87A3.55,3.55,0,0,0,57,80.66a3.86,3.86,0,0,0,1.4,1,3.81,3.81,0,0,0,1.7.31,3.47,3.47,0,0,0,1.39-.22A3.38,3.38,0,0,0,62.72,81a3.62,3.62,0,0,0,.75-1.21,3.49,3.49,0,0,0,.22-1.4h-3v.69H63a2.4,2.4,0,0,1-.89,1.62,2.84,2.84,0,0,1-1.85.62,3.43,3.43,0,0,1-1.66-.41,3.15,3.15,0,0,1-1.18-1.14A2.9,2.9,0,0,1,57,78.28a2.84,2.84,0,0,1,.41-1.48,3,3,0,0,1,1.17-1.11,3.15,3.15,0,0,1,1.62-.41,3.59,3.59,0,0,1,1.37.3,4.15,4.15,0,0,1,1.3.88l.55-.52a5.13,5.13,0,0,0-1.56-1,4.43,4.43,0,0,0-1.69-.33,4,4,0,0,0-2,.5A3.52,3.52,0,0,0,56.66,76.4Z"/><path class="cls-3" d="M94.1,81.82h-4V74.73h4v.69H90.79v2.23H94.1v.69H90.79v2.79H94.1"/><path class="cls-3" d="M123.53,68.14h-4.82v-4h4.82v-1h-4.82V59.84h4.86v-1h-5.89V69.15h5.85Z"/><path class="cls-3" d="M134.42,61.25a5.45,5.45,0,0,0-.73,2.73A5.22,5.22,0,0,0,135,67.46,5.79,5.79,0,0,0,137,69a5.7,5.7,0,0,0,2.48.46,5.16,5.16,0,0,0,2-.32A5.07,5.07,0,0,0,143.24,68a5.21,5.21,0,0,0,1.09-1.75,5.31,5.31,0,0,0,.32-2h-4.43v1h3.23a3.47,3.47,0,0,1-1.29,2.32,4.09,4.09,0,0,1-2.69.9,4.81,4.81,0,0,1-2.43-.6,4.36,4.36,0,0,1-1.71-1.62,4.25,4.25,0,0,1,0-4.37,4.27,4.27,0,0,1,1.7-1.62,4.75,4.75,0,0,1,2.3-.6,5,5,0,0,1,2,.44,6,6,0,0,1,1.89,1.29l.81-.76a7.45,7.45,0,0,0-2.25-1.52,6.54,6.54,0,0,0-2.43-.48,5.88,5.88,0,0,0-2.9.72A5.39,5.39,0,0,0,134.42,61.25Z"/><path class="cls-3" d="M105.34,74.73h-.77l-2.38,5.48-2.34-5.48h-.77l3,7.09h.16Z"/><path class="cls-3" d="M68.26,67.6A5.38,5.38,0,0,0,70.18,69a5.52,5.52,0,0,0,2.34.42,6,6,0,0,0,2.56-.54A5.28,5.28,0,0,0,77,67.35l-.81-.61A4.52,4.52,0,0,1,74.58,68a4.59,4.59,0,0,1-2,.43,4.36,4.36,0,0,1-1.75-.3,4.7,4.7,0,0,1-1.49-1,4.26,4.26,0,0,1-1-1.44A4.15,4.15,0,0,1,68.06,64a4.36,4.36,0,0,1,.57-2.25,4.2,4.2,0,0,1,1.62-1.62,4.42,4.42,0,0,1,2.27-.59,4.76,4.76,0,0,1,2.07.44,4.47,4.47,0,0,1,1.62,1.34l.81-.63a5,5,0,0,0-1.9-1.62,5.85,5.85,0,0,0-2.6-.58,5.45,5.45,0,0,0-4,1.55,5.09,5.09,0,0,0-1.19,1.74A5.22,5.22,0,0,0,67,63.87,5.46,5.46,0,0,0,68.26,67.6Z"/><path class="cls-3" d="M43.25,68.16h-4V58.83h-1V69.15h5Z"/><path class="cls-3" d="M128.51,64.36a5.24,5.24,0,0,0,2-.34,2.38,2.38,0,0,0,1.12-1,2.77,2.77,0,0,0,.4-1.48A2.58,2.58,0,0,0,130,59a11.9,11.9,0,0,0-2.31-.14h-2V69.15h1V64.36h.57l3.7,4.79h1.27Zm-1.84-1V59.84h1.8A4.32,4.32,0,0,1,130,60a1.5,1.5,0,0,1,.73.61,1.68,1.68,0,0,1,.29.94,1.85,1.85,0,0,1-.28,1,1.56,1.56,0,0,1-.81.62,4.33,4.33,0,0,1-1.52.2Z"/><path class="cls-3" d="M87.55,60.13A5.37,5.37,0,0,0,85.76,59a5.28,5.28,0,0,0-2.12-.38A5.28,5.28,0,0,0,79,61.28,5.43,5.43,0,0,0,78.3,64a5.07,5.07,0,0,0,.41,2.07,5.33,5.33,0,0,0,1.2,1.73,5.26,5.26,0,0,0,3.86,1.58,5.11,5.11,0,0,0,2.08-.4,5.5,5.5,0,0,0,2.93-2.94A5.14,5.14,0,0,0,89.17,64a5.16,5.16,0,0,0-1.62-3.85Zm0,6.09a4.23,4.23,0,0,1-1.62,1.63,4.42,4.42,0,0,1-2.22.57,4.18,4.18,0,0,1-3.07-1.26,4.37,4.37,0,0,1-1-1.42,4.25,4.25,0,0,1-.32-1.68,4.48,4.48,0,0,1,.58-2.26,4.3,4.3,0,0,1,1.62-1.63,4.2,4.2,0,0,1,2.16-.59,4.4,4.4,0,0,1,3.81,2.22A4.42,4.42,0,0,1,88.06,64a4.62,4.62,0,0,1-.56,2.24Z"/><path class="cls-3" d="M34.49,60.13A5.51,5.51,0,0,0,32.69,59a5.26,5.26,0,0,0-2.11-.38A5.28,5.28,0,0,0,26,61.28,5.43,5.43,0,0,0,25.23,64a5.17,5.17,0,0,0,.39,2.06,5.07,5.07,0,0,0,1.18,1.74A5.21,5.21,0,0,0,28.57,69a5.32,5.32,0,0,0,2.09.39,5.42,5.42,0,0,0,5-3.34A5.32,5.32,0,0,0,36.06,64a5.38,5.38,0,0,0-.39-2.09A5.24,5.24,0,0,0,34.49,60.13Zm-.06,6.09a4.16,4.16,0,0,1-1.62,1.63,4.36,4.36,0,0,1-2.21.57,4.08,4.08,0,0,1-1.66-.31,4.23,4.23,0,0,1-1.41-1,4.12,4.12,0,0,1-1-1.42,4.22,4.22,0,0,1-.32-1.68,4.48,4.48,0,0,1,.58-2.26,4.35,4.35,0,0,1,6-1.63,4.44,4.44,0,0,1,1.62,1.63A4.32,4.32,0,0,1,35,64a4.47,4.47,0,0,1-.57,2.24Z"/><path class="cls-3" d="M49.59,58.83h-.21L44.52,69.15h1.15l1.62-3.4h4.43l1.62,3.4h1.1ZM47.7,64.75,49.46,61l1.75,3.73Z"/><path class="cls-3" d="M161.58,58.83h-.26l-4.85,10.32h1.14l1.62-3.4h4.43l1.61,3.4h1.11Zm-1.9,5.92L161.45,61l1.74,3.73Z"/><path class="cls-3" d="M66.55,13.6a23.55,23.55,0,0,0,0,19.66l4-4.06a18.07,18.07,0,0,1,0-11.49Z"/><path class="cls-3" d="M105.34,8A23.29,23.29,0,0,0,72.4,5.77,23.89,23.89,0,0,0,70.15,8h8.1a18,18,0,0,1,19,0Z"/><path class="cls-3" d="M78.24,38.83H70.15a23.35,23.35,0,0,0,25,6.81,23.56,23.56,0,0,0,7.9-4.55,23.88,23.88,0,0,0,2.24-2.26H97.25a18,18,0,0,1-19,0Z"/><path class="cls-3" d="M80.21,10.74,95.32,25.89V10.74h12.06l.23.36-5.07,5.08v14.5l5.07,5.08-.23.35H95.28L80.18,21V36.11H68.11l-.22-.35L73,30.68V16.18L67.89,11.1l.22-.36Z"/></g></svg>