<svg width="396" height="400" viewBox="0 0 396 400" fill="none" xmlns="http://www.w3.org/2000/svg">
<g clip-path="url(#clip0_2530_784)">
<path opacity="0.6" d="M-3.00002 399.749L-3 0L394.76 1.73866e-05L396 1.23108L393.919 3.36377L393.919 4.68152L392.609 4.68152L0.529268 396.723L0.694026 397.867L-0.624037 397.867L-2.75722 400L-3.00002 399.749ZM0.694029 332.248L117.221 215.713L100.745 187.33L82.3359 205.752L57.4488 230.634L0.694031 287.184L0.694029 332.248ZM88.9175 19.2809L222.458 55.5886L238.587 39.1859L88.9175 19.2809ZM249.686 28.5745L273.724 4.56881L69.268 4.56881L249.686 28.5745ZM87.7122 31.9643L199.739 78.3112L212.425 65.6538L87.7122 31.9643ZM64.0304 35.5188L62.062 34.7038L177.011 101.095L190.278 87.8476L64.0304 35.5188ZM57.943 40.1656L159.599 118.477L172.016 106.053L57.943 40.1656ZM61.1688 216.918L74.4622 203.68L27.3501 89.4948L61.1688 216.918ZM15.9992 94.6791L35.4666 242.615L51.0752 227.01L15.9992 94.6791ZM83.5325 194.334L97.0427 180.819L30.2724 65.1076L83.5325 194.334ZM102.072 176.068L114.212 163.87L37.6605 64.4401L36.4031 62.8015L102.072 176.068ZM60.4491 72.8148L123.335 154.793L132.691 145.387L60.4491 72.8148ZM141.094 137.125L150.875 127.398L67.3516 62.9229L141.094 137.125ZM105.74 182.345L122.147 210.893L206.737 126.236L178.303 109.764L105.74 182.345ZM0.529274 277.18L24.2024 253.503L0.69404 76.3172L0.529282 73.7164L0.529274 277.18ZM0.69404 72.7627L4.02388 72.4333C5.77313 72.3228 7.51201 72.0852 9.22676 71.7224L12.9468 70.578C14.5857 70.1966 16.3374 69.8151 18.037 69.321L21.9651 67.9078C23.6994 67.249 25.295 66.5901 26.8298 65.8792L30.0036 64.5181L0.694043 13.8104L0.69404 72.7627ZM35.9089 61.3884L38.6404 59.6545C40.1145 58.5622 41.4846 57.5825 42.794 56.5422L45.751 53.8026C47.0604 52.6063 48.3524 51.4012 49.471 50.1441L52.3153 47.0231C53.4079 45.714 54.3877 44.2922 55.4283 42.8705L57.4488 40.0269L6.43455 10.4207L35.9089 61.3884ZM9.89447 4.51679L60.8393 33.9409L62.2614 30.8719C62.9725 29.3981 63.5795 27.8116 64.2298 26.0604L65.5999 22.2892C66.0942 20.7027 66.4671 19.1161 66.9093 17.2609L67.7331 13.0995C68.0106 11.513 68.2794 9.76181 68.4442 7.95856L68.7737 4.49078L9.89447 4.51679ZM283.418 4.68152L183.35 104.701L211.896 121.104L328.25 4.5168L283.418 4.68152ZM382.923 4.5168L338.083 4.68152L0.694028 342.036L0.694026 387.117L382.923 4.5168Z" fill="url(#paint0_radial_2530_784)"/>
</g>
<defs>
<radialGradient id="paint0_radial_2530_784" cx="0" cy="0" r="1" gradientUnits="userSpaceOnUse" gradientTransform="translate(196.496 200.004) rotate(90) scale(286.699 286.765)">
<stop stop-color="#C0985B"/>
<stop offset="1" stop-color="#C3C7D5" stop-opacity="0"/>
</radialGradient>
<clipPath id="clip0_2530_784">
<rect width="400" height="399" fill="white" transform="matrix(-4.37114e-08 1 1 4.37114e-08 -3 0)"/>
</clipPath>
</defs>
</svg>
