<svg width="396" height="400" viewBox="0 0 396 400" fill="none" xmlns="http://www.w3.org/2000/svg">
<g clip-path="url(#clip0_2530_786)">
<path opacity="0.6" d="M399 399.749L399 0L1.23999 1.73866e-05L-3.04638e-05 1.23108L2.08112 3.36377L2.08112 4.68152L3.3905 4.68152L395.471 396.723L395.306 397.867L396.624 397.867L398.757 400L399 399.749ZM395.306 332.248L278.779 215.713L295.255 187.33L313.664 205.752L338.551 230.634L395.306 287.184L395.306 332.248ZM307.082 19.2809L173.542 55.5886L157.413 39.1859L307.082 19.2809ZM146.314 28.5745L122.276 4.56881L326.732 4.56881L146.314 28.5745ZM308.288 31.9643L196.261 78.3112L183.575 65.6538L308.288 31.9643ZM331.97 35.5188L333.938 34.7038L218.989 101.095L205.722 87.8476L331.97 35.5188ZM338.057 40.1656L236.401 118.477L223.984 106.053L338.057 40.1656ZM334.831 216.918L321.538 203.68L368.65 89.4948L334.831 216.918ZM380.001 94.6791L360.533 242.615L344.925 227.01L380.001 94.6791ZM312.467 194.334L298.957 180.819L365.728 65.1076L312.467 194.334ZM293.928 176.068L281.788 163.87L358.34 64.4401L359.597 62.8015L293.928 176.068ZM335.551 72.8148L272.665 154.793L263.309 145.387L335.551 72.8148ZM254.906 137.125L245.125 127.398L328.648 62.9229L254.906 137.125ZM290.26 182.345L273.853 210.893L189.263 126.236L217.697 109.764L290.26 182.345ZM395.471 277.18L371.798 253.503L395.306 76.3172L395.471 73.7164L395.471 277.18ZM395.306 72.7627L391.976 72.4333C390.227 72.3228 388.488 72.0852 386.773 71.7224L383.053 70.578C381.414 70.1966 379.663 69.8151 377.963 69.321L374.035 67.9078C372.301 67.249 370.705 66.5901 369.17 65.8792L365.996 64.5181L395.306 13.8104L395.306 72.7627ZM360.091 61.3884L357.36 59.6545C355.885 58.5622 354.515 57.5825 353.206 56.5422L350.249 53.8026C348.94 52.6063 347.648 51.4012 346.529 50.1441L343.685 47.0231C342.592 45.714 341.612 44.2922 340.572 42.8705L338.551 40.0269L389.565 10.4207L360.091 61.3884ZM386.106 4.51679L335.161 33.9409L333.739 30.8719C333.028 29.3981 332.421 27.8116 331.77 26.0604L330.4 22.2892C329.906 20.7027 329.533 19.1161 329.091 17.2609L328.267 13.0995C327.989 11.513 327.721 9.76181 327.556 7.95856L327.226 4.49078L386.106 4.51679ZM112.582 4.68152L212.65 104.701L184.104 121.104L67.7501 4.5168L112.582 4.68152ZM13.0765 4.5168L57.9167 4.68152L395.306 342.036L395.306 387.117L13.0765 4.5168Z" fill="url(#paint0_radial_2530_786)"/>
</g>
<defs>
<radialGradient id="paint0_radial_2530_786" cx="0" cy="0" r="1" gradientUnits="userSpaceOnUse" gradientTransform="translate(199.504 200.004) rotate(90) scale(286.699 286.765)">
<stop stop-color="#C0985B"/>
<stop offset="1" stop-color="#C3C7D5" stop-opacity="0"/>
</radialGradient>
<clipPath id="clip0_2530_786">
<rect width="400" height="399" fill="white" transform="translate(399) rotate(90)"/>
</clipPath>
</defs>
</svg>
