<svg width="137" height="39" viewBox="0 0 137 39" fill="none" xmlns="http://www.w3.org/2000/svg">
<rect x="136.5" y="38.4999" width="136" height="38.0001" rx="19.0001" transform="rotate(180 136.5 38.4999)" fill="white" stroke="#C0985B"/>
<g clip-path="url(#clip0_3105_3)">
<path d="M119.522 20.1201L119.55 20.1111C119.637 20.0812 119.717 20.0352 119.785 19.9762L119.807 19.9565C119.871 19.8948 119.922 19.8217 119.955 19.7417L119.964 19.716C120.011 19.588 120.011 19.4498 119.964 19.3218L119.955 19.2961C119.922 19.2161 119.871 19.143 119.807 19.0813L119.785 19.062C119.717 19.0029 119.637 18.9569 119.549 18.927L119.521 18.918C119.479 18.9053 119.436 18.8963 119.392 18.8913L95.2902 15.7179C95.2778 15.7163 95.2654 15.715 95.2532 15.7139C94.5324 15.6256 94.0788 15.5884 93.6144 15.708C93.1258 15.8339 92.7498 16.0977 92.2135 16.6076L89.9609 18.7463C89.9223 18.7829 89.8886 18.8237 89.8605 18.8676L81.4886 18.8676L74.6555 14.7635C74.5422 14.6957 74.4097 14.6596 74.2742 14.6598C74.1387 14.66 74.0062 14.6964 73.8932 14.7645L73.8932 14.7635L70.9331 16.5593L67.9432 14.7635C67.83 14.6957 67.6974 14.6596 67.5619 14.6598C67.4264 14.66 67.294 14.6964 67.1809 14.7645L67.1801 14.7635L60.4152 18.8676L57.118 18.8676C52.532 18.7203 49.0799 18.1464 46.3344 17.1699C43.6117 16.2015 41.5786 14.8303 39.8112 13.0811C38.6987 11.9804 38.5202 11.9838 37.2127 12.0073C37.1059 12.0092 36.9848 12.0114 36.634 12.0114L19.1837 12.0114C18.5026 12.0114 17.9393 12.1208 17.5123 12.3967C17.0267 12.7106 16.7645 13.1828 16.7645 13.8695L16.7645 14.7187C16.7645 15.1016 16.8376 15.4053 17.0118 15.6899C17.1779 15.9611 17.4188 16.1781 17.7629 16.4009L22.5621 19.5003L17.7624 22.6012C17.4183 22.8235 17.1774 23.0406 17.0113 23.3122C16.8371 23.5968 16.764 23.9006 16.764 24.2834L16.764 25.1326C16.764 25.8193 17.0266 26.2915 17.5118 26.6054C17.9389 26.8811 18.5021 26.9907 19.1832 26.9907L36.6331 26.9907C36.9839 26.9907 37.105 26.9929 37.2117 26.995C38.5192 27.0186 38.6977 27.0218 39.81 25.9212C41.578 24.172 43.611 22.8015 46.3333 21.8323C49.0788 20.8558 52.5308 20.2819 57.1168 20.1346L60.3702 20.1346L67.2035 24.2387C67.3168 24.3066 67.4493 24.3427 67.5848 24.3425C67.7203 24.3423 67.8528 24.3059 67.9658 24.2377L67.9666 24.2387L70.9259 22.4429L73.9158 24.2387C74.029 24.3066 74.1616 24.3427 74.2971 24.3425C74.4326 24.3423 74.565 24.3059 74.6781 24.2377L74.6789 24.2387L81.4438 20.1346L89.8395 20.1346C89.871 20.1928 89.9122 20.2462 89.9615 20.293L92.2141 22.4316C92.7505 22.9408 93.1264 23.2046 93.615 23.3305C94.079 23.4501 94.5328 23.4129 95.2538 23.3246C95.2661 23.3236 95.2785 23.3223 95.2909 23.3207L119.392 20.1468C119.436 20.1418 119.479 20.1329 119.522 20.1201V20.1201ZM41.1144 23.09L19.399 23.09L23.9738 20.1342L47.4811 20.1342C46.905 20.2929 46.3542 20.4659 45.8288 20.6531C44.0072 21.3011 42.4717 22.1154 41.1144 23.09V23.09ZM18.2531 23.8824L40.0891 23.8824C39.6388 24.2564 39.207 24.6504 38.7891 25.0639C38.0987 25.7471 37.9955 25.7452 37.2389 25.7314C37.0044 25.7272 36.7355 25.7224 36.6331 25.7224L19.1837 25.7224C18.7788 25.7224 18.4798 25.6805 18.3161 25.5747C18.2113 25.5069 18.1545 25.3669 18.1545 25.1321L18.1545 24.283C18.1545 24.1171 18.1747 24.0042 18.2225 23.926C18.2319 23.911 18.2421 23.8965 18.2533 23.8825L18.2531 23.8824ZM78.9721 18.8663L74.7757 18.8663L72.1911 17.3137L74.2787 16.0472L78.9721 18.8663ZM72.2589 18.8663L69.6322 18.8663L70.939 18.0736L72.2589 18.8663ZM67.1276 18.8663L62.9192 18.8663L67.565 16.0475L69.6798 17.3176L67.127 18.8663L67.1276 18.8663ZM62.8871 20.1342L67.0834 20.1342L69.668 21.6868L67.5805 22.9533L62.8871 20.1342ZM69.6003 20.1342L72.2269 20.1342L70.9202 20.9269L69.6003 20.1342ZM74.7315 20.1342L78.94 20.1342L74.2941 22.953L72.1793 21.6829L74.7322 20.1342L74.7315 20.1342ZM40.0891 15.1181L18.2531 15.1181C18.242 15.1042 18.2317 15.0897 18.2224 15.0746C18.1747 14.9964 18.1543 14.8835 18.1543 14.7177L18.1543 13.8685C18.1543 13.6337 18.2111 13.4937 18.3159 13.426C18.4797 13.3202 18.7786 13.2782 19.1835 13.2782L36.6331 13.2782C36.7355 13.2782 37.0044 13.2735 37.2389 13.2692C37.9955 13.2555 38.0981 13.2536 38.7891 13.9367C39.207 14.3503 39.6388 14.7442 40.0891 15.1183L40.0891 15.1181ZM19.399 15.9106L41.1144 15.9106C42.4722 16.8851 44.0072 17.6994 45.8288 18.3474C46.355 18.5345 46.9057 18.7075 47.4811 18.8663L23.9738 18.8663L19.399 15.9106V15.9106ZM91.1488 19.5943C91.1538 19.5631 91.1564 19.5317 91.1564 19.5003C91.1564 19.4796 91.1551 19.4592 91.1531 19.439L93.2135 17.483C93.5695 17.1449 93.7862 16.9784 93.9897 16.9258C94.2075 16.8697 94.5326 16.9007 95.0694 16.9665L95.095 16.9704L114.449 19.5187L95.095 22.0671C95.0864 22.0683 95.0778 22.0696 95.0692 22.071C94.5326 22.1369 94.2075 22.1678 93.9897 22.1117C93.7858 22.0591 93.5695 21.8926 93.2135 21.5545L91.1488 19.5943V19.5943Z" fill="#C0985B"/>
</g>
<defs>
<clipPath id="clip0_3105_3">
<rect width="15" height="103.235" fill="white" transform="matrix(1.19249e-08 -1 -1 -1.19249e-08 120 26.9999)"/>
</clipPath>
</defs>
</svg>
