<svg width="138" height="39" viewBox="0 0 138 39" fill="none" xmlns="http://www.w3.org/2000/svg">
<rect x="137.01" y="39.0001" width="137" height="39.0001" rx="19.5001" transform="rotate(180 137.01 39.0001)" fill="#C0985B"/>
<g clip-path="url(#clip0_2879_95)">
<path d="M119.531 20.1204L119.559 20.1114C119.647 20.0814 119.727 20.0355 119.795 19.9764L119.816 19.9567C119.881 19.895 119.932 19.8219 119.964 19.7419L119.974 19.7163C120.02 19.5882 120.02 19.4501 119.974 19.322L119.964 19.2963C119.932 19.2163 119.881 19.1432 119.816 19.0816L119.795 19.0623C119.727 19.0031 119.647 18.9572 119.559 18.9272L119.531 18.9182C119.489 18.9055 119.445 18.8966 119.401 18.8915L95.3 15.7181C95.2876 15.7165 95.2752 15.7152 95.2629 15.7142C94.5422 15.6258 94.0886 15.5887 93.6242 15.7082C93.1356 15.8342 92.7596 16.098 92.2233 16.6079L89.9707 18.7465C89.932 18.7832 89.8983 18.8239 89.8703 18.8678L81.4984 18.8678L74.6652 14.7637C74.552 14.6959 74.4194 14.6599 74.2839 14.66C74.1484 14.6602 74.016 14.6966 73.903 14.7648L73.903 14.7637L70.9428 16.5595L67.953 14.7637C67.8397 14.6959 67.7072 14.6599 67.5717 14.66C67.4362 14.6602 67.3037 14.6966 67.1907 14.7648L67.1899 14.7637L60.425 18.8678L57.1277 18.8678C52.5417 18.7206 49.0897 18.1467 46.3442 17.1701C43.6214 16.2017 41.5884 14.8305 39.8209 13.0813C38.7085 11.9807 38.53 11.984 37.2224 12.0075C37.1157 12.0094 36.9946 12.0116 36.6438 12.0116L19.1935 12.0116C18.5123 12.0116 17.9491 12.121 17.5221 12.397C17.0365 12.7108 16.7743 13.183 16.7743 13.8698L16.7743 14.7189C16.7743 15.1018 16.8473 15.4055 17.0215 15.6901C17.1876 15.9613 17.4285 16.1784 17.7727 16.4011L22.5719 19.5005L17.7722 22.6015C17.428 22.8238 17.1872 23.0408 17.0211 23.3125C16.8468 23.597 16.7738 23.9009 16.7738 24.2836L16.7738 25.1328C16.7738 25.8196 17.0363 26.2917 17.5216 26.6056C17.9486 26.8813 18.5119 26.991 19.193 26.991L36.6428 26.991C36.9936 26.991 37.1147 26.9932 37.2215 26.9952C38.529 27.0188 38.7075 27.022 39.8198 25.9214C41.5878 24.1722 43.6208 22.8017 46.3431 21.8326C49.0885 20.856 52.5406 20.2821 57.1266 20.1349L60.38 20.1349L67.2133 24.239C67.3265 24.3068 67.4591 24.3429 67.5946 24.3427C67.7301 24.3425 67.8626 24.3061 67.9756 24.2379L67.9764 24.239L70.9357 22.4432L73.9256 24.239C74.0388 24.3068 74.1714 24.3429 74.3069 24.3427C74.4424 24.3425 74.5748 24.3061 74.6878 24.2379L74.6886 24.239L81.4535 20.1349L89.8493 20.1349C89.8808 20.1931 89.9219 20.2465 89.9713 20.2932L92.2239 22.4318C92.7602 22.941 93.1362 23.2048 93.6248 23.3308C94.0888 23.4503 94.5425 23.4132 95.2636 23.3248C95.2758 23.3238 95.2882 23.3225 95.3006 23.3209L119.402 20.1471C119.446 20.142 119.489 20.1331 119.531 20.1204V20.1204ZM41.1241 23.0902L19.4087 23.0902L23.9836 20.1344L47.4908 20.1344C46.9148 20.2932 46.364 20.4661 45.8385 20.6533C44.017 21.3014 42.4814 22.1157 41.1241 23.0902V23.0902ZM18.2629 23.8826L40.0989 23.8826C39.6486 24.2567 39.2168 24.6506 38.7988 25.0642C38.1085 25.7473 38.0052 25.7454 37.2487 25.7316C37.0142 25.7274 36.7453 25.7226 36.6428 25.7226L19.1935 25.7226C18.7885 25.7226 18.4896 25.6807 18.3259 25.5749C18.221 25.5072 18.1642 25.3671 18.1642 25.1324L18.1642 24.2832C18.1642 24.1174 18.1844 24.0045 18.2323 23.9263C18.2416 23.9112 18.2519 23.8967 18.263 23.8827L18.2629 23.8826ZM78.9819 18.8665L74.7855 18.8665L72.2009 17.3139L74.2885 16.0475L78.9819 18.8665ZM72.2687 18.8665L69.642 18.8665L70.9487 18.0738L72.2687 18.8665ZM67.1374 18.8665L62.929 18.8665L67.5748 16.0478L69.6896 17.3178L67.1368 18.8665L67.1374 18.8665ZM62.8968 20.1344L67.0932 20.1344L69.6778 21.687L67.5902 22.9535L62.8968 20.1344ZM69.61 20.1344L72.2367 20.1344L70.93 20.9271L69.61 20.1344ZM74.7413 20.1344L78.9497 20.1344L74.3039 22.9532L72.1891 21.6831L74.7419 20.1344L74.7413 20.1344ZM40.0989 15.1184L18.2629 15.1184C18.2517 15.1044 18.2415 15.0899 18.2322 15.0748C18.1844 14.9966 18.1641 14.8837 18.1641 14.7179L18.1641 13.8688C18.1641 13.634 18.2209 13.494 18.3257 13.4262C18.4894 13.3204 18.7884 13.2785 19.1933 13.2785L36.6428 13.2785C36.7453 13.2785 37.0142 13.2737 37.2487 13.2695C38.0052 13.2557 38.1079 13.2538 38.7988 13.937C39.2168 14.3505 39.6486 14.7444 40.0989 15.1185L40.0989 15.1184ZM19.4087 15.9108L41.1241 15.9108C42.4819 16.8853 44.017 17.6996 45.8385 18.3476C46.3647 18.5347 46.9155 18.7077 47.4908 18.8665L23.9836 18.8665L19.4087 15.9108V15.9108ZM91.1585 19.5945C91.1636 19.5634 91.1661 19.532 91.1662 19.5005C91.1662 19.4799 91.1649 19.4594 91.1628 19.4392L93.2232 17.4833C93.5793 17.1452 93.796 16.9786 93.9995 16.9261C94.2173 16.8699 94.5424 16.901 95.0792 16.9667L95.1048 16.9706L114.459 19.5189L95.1048 22.0674C95.0962 22.0685 95.0876 22.0698 95.079 22.0713C94.5424 22.1371 94.2173 22.1681 93.9995 22.1119C93.7955 22.0594 93.5793 21.8928 93.2232 21.5547L91.1585 19.5945V19.5945Z" fill="white"/>
</g>
<defs>
<clipPath id="clip0_2879_95">
<rect width="15" height="103.235" fill="white" transform="matrix(1.19249e-08 -1 -1 -1.19249e-08 120.01 27.0001)"/>
</clipPath>
</defs>
</svg>
