<svg id="Layer_1" data-name="Layer 1" xmlns="http://www.w3.org/2000/svg" xmlns:xlink="http://www.w3.org/1999/xlink" viewBox="0 0 460.06 459.94"><defs><style>.cls-1{opacity:0.6;fill:url(#radial-gradient);}</style><radialGradient id="radial-gradient" cx="-299.96" cy="-299.26" fy="-519.9874384718124" r="361.72" gradientTransform="translate(528.63 -69.9) rotate(-90)" gradientUnits="userSpaceOnUse"><stop offset="0" stop-color="#c3c7d5"/><stop offset="0.77" stop-color="#c3c7d5" stop-opacity="0"/></radialGradient></defs><path class="cls-1" d="M-.69-.34v461.1H458l1.42-1.42L457,456.88v-1.52h-1.52L3.37,3.15l.19-1.32H2.05L-.41-.63ZM3.56,77.52,138,211.94l-19,32.74L97.71,223.49,69,194.79,3.56,129.5Zm101.78,361,153.94-41.88,18.6,18.92Zm185.4-10.72,27.69,27.69H82.64ZM104,423.89,233.1,370.4,247.74,385Zm-27.31-4.1-2.27.94,132.56-76.57,15.26,15.32Zm-7.06-5.36L186.82,324.1l14.31,14.32Zm3.72-203.87,15.32,15.26L34.34,357.53Zm-52.09,141L43.67,180.91l18,18ZM99.1,236.61l15.58,15.58-77,133.47Zm21.38,21.07,14,14.06L46.19,386.48l-1.45,1.89Zm-48,119.09L145,282.21l10.78,10.85Zm93-74.18,11.29,11.23-96.3,74.37ZM124.7,250.48l18.92-32.92,97.56,97.64-32.79,19ZM3.37,141l27.31,27.32L3.56,372.73l-.19,3Zm.19,235.79,3.85.38a41.85,41.85,0,0,1,6,.82l4.29,1.32c1.89.45,3.91.89,5.86,1.45l4.54,1.64c2,.76,3.85,1.52,5.62,2.34l3.65,1.58L3.56,444.83ZM44.17,390l3.16,2c1.7,1.26,3.28,2.4,4.79,3.6l3.4,3.15c1.52,1.39,3,2.77,4.29,4.23l3.28,3.59c1.26,1.51,2.4,3.15,3.6,4.79L69,414.62,10.18,448.74Zm-30,65.6,58.77-33.93,1.64,3.53c.82,1.7,1.51,3.53,2.27,5.55l1.58,4.35c.56,1.83,1,3.66,1.51,5.81l.95,4.79c.31,1.83.63,3.85.82,5.93l.37,4Zm315.43-.19L214.19,340l32.91-18.92L381.3,455.55Zm114.77.19-51.71-.19L3.56,66.23v-52Z"/></svg>