<svg id="Layer_1" data-name="Layer 1" xmlns="http://www.w3.org/2000/svg" xmlns:xlink="http://www.w3.org/1999/xlink" viewBox="0 0 920.13 459.94"><defs><style>.cls-1{opacity:0.6;fill:url(#radial-gradient);}</style><radialGradient id="radial-gradient" cx="460.06" cy="230.06" fy="-85.98233655012666" r="1003.4" gradientUnits="userSpaceOnUse"><stop offset="0" stop-color="#c3c7d5"/><stop offset="0.43" stop-color="#c3c7d5" stop-opacity="0"/></radialGradient></defs><path class="cls-1" d="M.16,0,0,.16,2.46,2.55V4.07H4L456.25,456.22v1.51h1.51l2.4,2.4,2.46-2.4h1.51v-1.51L916.34,4.07l1.33.19V2.74L920.13.28,919.84,0ZM355.51,35.79,226.26,89.26,211.63,74.63ZM200.09,63.09l-18.93-18.6,173-23ZM385,38.88,252.57,115.37l-15.2-15.26Zm2.53,44.27L315,177.74,304.23,167ZM294.14,156.8l-11.29-11.29,96.7-74.09Zm-21.7-21.38-14.26-14.25,131.52-76ZM335,209l-18.92,32.91-97.65-97.68,32.87-18.85Zm-10.22-21.38L413,72.93l1.64-2.14L338.92,201.7Zm97-113.38L360.31,223,344.6,207.63Zm3.65,28.18-39,146.81L371.09,234Zm13.12,6L416,278.7l-18.05-18Zm17.22-21.56.38-2.71V318.93l-27.37-27.37Zm.32-4.1-3.91-.32a37.73,37.73,0,0,1-5.93-.88l-4.54-.88c-1.89-.38-3.91-.89-5.87-1.45l-4.54-1.64c-2.08-.76-3.91-1.52-5.62-2.27l-3.59-1.64,34-58.84ZM415.88,69.71l-3.28-2.33c-1.58-1.13-3.16-2.27-4.73-3.53l-3.41-3.15a26,26,0,0,1-4.92-4.23h.63L397,52.88c-1.32-1.52-2.52-3.22-3.65-4.8L391,44.87l58.78-34ZM445.53,4.07,386.67,38l-1.57-3.46c-.82-1.77-1.58-3.66-2.34-5.62l-1.39-3.78v-.5c-.56-1.83-.94-3.66-1.45-5.87L379,14a22.55,22.55,0,0,1-1.33-5.93h.07l-.38-4Zm-68.89.19L168.8,31.81,141.11,4.26Zm-246.51,0,115.44,115.4-32.93,18.92L78,4.26Zm326.12,441L15,4.26h52.1l389.2,389.08Zm0-63.06L321.83,247.8l19-32.92L456.25,330.22ZM842,4.26,707.55,138.64l-32.73-19L696,98.41l28.7-28.7L790,4.26ZM481,106,522.86,260l-18.92,18.6Zm10.72,185.4L464,319.12V83.34Zm3.91-186.79L549.1,233.8l-14.63,14.63Zm4.1-27.31-.95-2.27,76.58,132.56L560,222.89Zm5.36-7.06L595.4,187.51l-14.32,14.32ZM708.94,74,693.68,89.33,562,35ZM568,21.91,738.59,44.36l-18,18ZM682.89,99.79l-15.58,15.58-133.47-77Zm-21.07,21.38-14.06,14L533,46.89l-1.9-1.45Zm-119.09-48,94.56,72.52-10.86,10.79Zm74.18,93-11.23,11.28L531.31,81.13ZM669,125.4l32.93,18.92-97.65,97.55-19-32.79ZM778.45,4.07l-27.31,27.3L546.77,4.26l-3-.19Zm-235.78.19-.38,3.84a43.12,43.12,0,0,1-.82,6l-1.33,4.29c-.44,1.89-.88,3.91-1.45,5.87l-1.64,4.54c-.75,2-1.51,3.84-2.33,5.61l-1.58,3.66L474.67,4.26ZM529.55,44.87l-2,3.15c-1.26,1.7-2.4,3.28-3.6,4.79l-3.15,3.41c-1.39,1.51-2.78,3-4.23,4.29L513,63.79c-1.52,1.26-3.16,2.39-4.8,3.59l-3.28,2.33L470.76,10.88Zm-65.61-30,33.94,58.77-3.53,1.64c-1.71.82-3.53,1.52-5.55,2.27l-4.36,1.58c-1.82.57-3.65,1-5.8,1.51l-4.79.95c-1.83.32-3.85.63-5.93.82l-4,.38Zm.19,315.43,115.38-115.4,18.92,32.92L463.94,382Zm-.19,114.77.19-51.71L853.27,4.26h52Z"/></svg>