<svg id="Layer_1" data-name="Layer 1" xmlns="http://www.w3.org/2000/svg" viewBox="0 0 138 40"><defs><style>.cls-1{fill:#fff;stroke:#c0985b;stroke-miterlimit:10;}.cls-2{fill:#c0985b;}</style></defs><path class="cls-1" d="M118,39.5H20A19.5,19.5,0,0,1,.5,20h0A19.5,19.5,0,0,1,20,.5h98A19.5,19.5,0,0,1,137.5,20h0A19.5,19.5,0,0,1,118,39.5Z"/><path class="cls-2" d="M120,20.62h0a.7.7,0,0,0,.24-.13l0,0a1.07,1.07,0,0,0,.15-.22v0a.55.55,0,0,0,0-.4v0a.86.86,0,0,0-.15-.22l0,0a.7.7,0,0,0-.24-.13h0l-.13,0-24.1-3.17h0a4.46,4.46,0,0,0-1.64,0,3.14,3.14,0,0,0-1.4.9l-2.25,2.14a.4.4,0,0,0-.1.12H82l-6.84-4.11a.8.8,0,0,0-.38-.1.86.86,0,0,0-.38.1h0l-3,1.8-3-1.8a.8.8,0,0,0-.38-.1.83.83,0,0,0-.38.1h0l-6.76,4.11h-3.3a35.68,35.68,0,0,1-10.79-1.7,17.14,17.14,0,0,1-6.52-4.09c-1.11-1.1-1.29-1.1-2.6-1.07h-18A3,3,0,0,0,18,12.9a1.62,1.62,0,0,0-.75,1.47v.85a1.8,1.8,0,0,0,.25,1,2.34,2.34,0,0,0,.75.71l4.8,3.1-4.8,3.1a2.34,2.34,0,0,0-.75.71,1.82,1.82,0,0,0-.25,1v.85A1.65,1.65,0,0,0,18,27.11a3.11,3.11,0,0,0,1.67.38h18c1.31,0,1.49,0,2.6-1.08a17.14,17.14,0,0,1,6.52-4.09,36,36,0,0,1,10.79-1.7h3.25l6.83,4.11a.75.75,0,0,0,.38.1.76.76,0,0,0,.39-.1h0l3-1.8,3,1.8a.7.7,0,0,0,.38.1.72.72,0,0,0,.38-.1h0l6.76-4.11h8.4a.48.48,0,0,0,.12.16l2.25,2.14a3.23,3.23,0,0,0,1.4.9,4.28,4.28,0,0,0,1.64,0h0l24.1-3.17Zm-78.41,3H19.9l4.57-3H48c-.58.16-1.13.34-1.65.52A19.06,19.06,0,0,0,41.61,23.59Zm-22.86.79H40.59c-.45.38-.88.77-1.3,1.18-.69.69-.79.69-1.55.67H19.68a1.67,1.67,0,0,1-.86-.15c-.11-.06-.17-.2-.17-.44v-.85a.63.63,0,0,1,.07-.35l0-.05Zm60.72-5H75.28l-2.59-1.56,2.09-1.26Zm-6.71,0H70.13l1.31-.8Zm-5.13,0H63.42l4.65-2.82,2.11,1.27-2.55,1.55Zm-4.24,1.26h4.19l2.59,1.56-2.09,1.26Zm6.71,0h2.63l-1.31.8Zm5.13,0h4.21l-4.65,2.82-2.11-1.27,2.55-1.55Zm-34.64-5H18.75l0,0a.63.63,0,0,1-.07-.35v-.85c0-.24.06-.38.17-.44a1.67,1.67,0,0,1,.86-.15H37.74c.76,0,.86,0,1.55.67.42.41.85.8,1.3,1.18Zm-20.69.79H41.61a18.73,18.73,0,0,0,4.72,2.44c.53.18,1.08.36,1.65.52H24.47Zm71.75,3.68s0-.06,0-.09,0,0,0-.06l2.06-2a2.13,2.13,0,0,1,.78-.55,3.15,3.15,0,0,1,1.08,0h0L115,20,95.6,22.57h0a3.15,3.15,0,0,1-1.08,0,2.07,2.07,0,0,1-.78-.56Z"/></svg>