<svg id="Layer_1" data-name="Layer 1" xmlns="http://www.w3.org/2000/svg" viewBox="0 0 137 39"><defs><style>.cls-1{fill:#c0985b;}.cls-2{fill:#fff;}</style></defs><path class="cls-1" d="M19.5,0h98A19.5,19.5,0,0,1,137,19.5h0A19.5,19.5,0,0,1,117.5,39h-98A19.5,19.5,0,0,1,0,19.5H0A19.5,19.5,0,0,1,19.5,0Z"/><path class="cls-2" d="M17.48,18.88h0a.7.7,0,0,0-.24.13l0,0a1.07,1.07,0,0,0-.15.22v0a.55.55,0,0,0,0,.4v0a.86.86,0,0,0,.15.22l0,0a.7.7,0,0,0,.24.13h0l.13,0,24.1,3.17h0a4.46,4.46,0,0,0,1.64,0,3.14,3.14,0,0,0,1.4-.9L47,20.25a.4.4,0,0,0,.1-.12h8.37l6.84,4.11a.8.8,0,0,0,.38.1.86.86,0,0,0,.38-.1h0l3-1.8,3,1.8a.8.8,0,0,0,.38.1.83.83,0,0,0,.38-.1h0l6.76-4.11h3.3a35.68,35.68,0,0,1,10.79,1.7,17.14,17.14,0,0,1,6.52,4.09C98.3,27,98.48,27,99.79,27h18a3,3,0,0,0,1.67-.39,1.62,1.62,0,0,0,.75-1.47v-.85a1.8,1.8,0,0,0-.25-1,2.34,2.34,0,0,0-.75-.71l-4.8-3.1,4.8-3.1a2.34,2.34,0,0,0,.75-.71,1.82,1.82,0,0,0,.25-1v-.85a1.65,1.65,0,0,0-.75-1.48,3.11,3.11,0,0,0-1.67-.38h-18c-1.31,0-1.49,0-2.6,1.08a17.14,17.14,0,0,1-6.52,4.09,36,36,0,0,1-10.79,1.7H76.63L69.8,14.76a.75.75,0,0,0-.38-.1.76.76,0,0,0-.39.1h0l-3,1.8-3-1.8a.7.7,0,0,0-.38-.1.72.72,0,0,0-.38.1h0l-6.76,4.11h-8.4a.48.48,0,0,0-.12-.16l-2.25-2.14a3.23,3.23,0,0,0-1.4-.9,4.28,4.28,0,0,0-1.64,0h0l-24.1,3.17Zm78.41-3H117.6l-4.57,3H89.52c.58-.16,1.13-.34,1.65-.52A19.06,19.06,0,0,0,95.89,15.91Zm22.86-.79H96.91c.45-.38.88-.77,1.3-1.18.69-.69.79-.69,1.55-.67h18.06a1.67,1.67,0,0,1,.86.15c.11.06.17.2.17.44v.85a.63.63,0,0,1-.07.35l0,0ZM58,20.13h4.19l2.59,1.56L62.72,23Zm6.71,0h2.63l-1.31.8Zm5.13,0h4.21L69.43,23l-2.11-1.27,2.55-1.55Zm4.24-1.26H69.92l-2.59-1.56,2.09-1.26Zm-6.71,0H64.77l1.31-.8Zm-5.13,0H58.06l4.65-2.82,2.11,1.27-2.55,1.55Zm34.64,5h21.84l0,.05a.63.63,0,0,1,.07.35v.85c0,.24-.06.38-.17.44a1.67,1.67,0,0,1-.86.15H99.76c-.76,0-.86,0-1.55-.67-.42-.41-.85-.8-1.3-1.18Zm20.69-.79H95.89a18.73,18.73,0,0,0-4.72-2.44c-.53-.18-1.08-.36-1.65-.52H113ZM45.85,19.41s0,.06,0,.09,0,0,0,.06l-2.06,2a2.13,2.13,0,0,1-.78.55,3.15,3.15,0,0,1-1.08,0h0L22.55,19.48,41.9,16.93h0a3.15,3.15,0,0,1,1.08,0,2.07,2.07,0,0,1,.78.56Z"/></svg>