<svg id="Layer_1" data-name="Layer 1" xmlns="http://www.w3.org/2000/svg" xmlns:xlink="http://www.w3.org/1999/xlink" viewBox="0 0 50 83.55"><defs><style>.cls-1{fill:none;}.cls-2{clip-path:url(#clip-path);}.cls-3{fill:#c0985b;}</style><clipPath id="clip-path"><rect class="cls-1" width="50" height="83.55"/></clipPath></defs><g class="cls-2"><path class="cls-3" d="M7.82,16.15A.75.75,0,0,1,7.68,16a.46.46,0,0,1-.06-.23.55.55,0,0,1,0-.22.7.7,0,0,1,.11-.21.94.94,0,0,1,.19-.14.71.71,0,0,1,.22-.06.91.91,0,0,1,.23,0,.56.56,0,0,1,.2.11l20.57,17.6,4-3.5L.2,1A.49.49,0,0,1,.06.85.57.57,0,0,1,0,.63.85.85,0,0,1,0,.4.59.59,0,0,1,.14.2.49.49,0,0,1,.32.06.43.43,0,0,1,.54,0,.45.45,0,0,1,.77,0,.56.56,0,0,1,1,.14L34.48,28.91l.06.06a.6.6,0,0,1,.14.43.57.57,0,0,1-.2.4l-4.41,3.83,3.77,3.23,5-4.22a.59.59,0,0,1,.76,0l10.18,8.69.07.06a.62.62,0,0,1,.14.43.57.57,0,0,1-.21.4L39.62,50.9a.59.59,0,0,1-.38.16.62.62,0,0,1-.39-.14l-5-4.23-3.77,3.23,4.4,3.82a.64.64,0,0,1,.16.2.66.66,0,0,1,0,.25.4.4,0,0,1,0,.24.51.51,0,0,1-.15.21L1,83.41a.67.67,0,0,1-.2.12.85.85,0,0,1-.23,0,.79.79,0,0,1-.22-.06.65.65,0,0,1-.18-.15.56.56,0,0,1-.12-.2.58.58,0,0,1,0-.23.46.46,0,0,1,.06-.22.65.65,0,0,1,.15-.18l33-28.33-4-3.5L8.59,68.29a.56.56,0,0,1-.2.11.45.45,0,0,1-.23,0,.55.55,0,0,1-.22-.06.62.62,0,0,1-.18-.14.59.59,0,0,1-.12-.2.6.6,0,0,1,0-.23.55.55,0,0,1,.06-.22.65.65,0,0,1,.15-.18c6.06-5.17,6.44-8.5,6.9-12.4.08-.7.16-1.41.28-2.22a.61.61,0,0,1,.21-.36h0l8.14-6.78-3.94-3.43a.65.65,0,0,1-.15-.18.79.79,0,0,1-.06-.22.83.83,0,0,1,0-.22.67.67,0,0,1,.12-.2l.06-.07,3.94-3.41-8.14-6.79a.86.86,0,0,1-.14-.18.39.39,0,0,1-.06-.21c-.13-.8-.21-1.5-.29-2.18-.45-3.9-.83-7.23-6.9-12.4Zm-1.15,2-.14-.13L6.45,18l-.08-.07-.09-.08-.08-.07-.08-.07L6,17.54l-.09-.07-.09-.08L5,18.28l.17.15.24.21.16.14.16.14.14.13.78-.87ZM13.09,30.7c0-.39-.09-.79-.13-1.18l-1.17.15c.05.39.09.77.14,1.16l1.16-.14ZM12.23,26c-.08-.25-.17-.5-.26-.75l-.05-.12L11.87,25l0-.06,0-.11-1.08.46a9.41,9.41,0,0,1,.39,1.05L12.23,26ZM10,21.68l0-.05-.05-.07,0-.06-.05-.06,0-.07-.05-.06-.05-.06,0-.07-.06-.06-.05-.07,0-.06-.06-.07-.05-.06,0-.07-.05-.05-.89.76.09.11,0,.07.06.06.05.06,0,.06.05.06,0,.06.05.06,0,.06.05.06,0,.06,0,.06.05.06,0,.05.93-.71Zm-4,43.55-.13.12-.16.14-.16.14-.25.22L5.06,66l.77.89.08-.07L6,66.74l.17-.15.09-.07.08-.08.08-.07.08-.07.08-.08.14-.12-.78-.87ZM12,53.45c0,.38-.09.77-.14,1.15l1.17.15c.05-.39.09-.78.14-1.17L12,53.44Zm-.81,4.49c-.12.35-.25.7-.4,1.05l1.09.46,0-.11,0-.06,0-.12,0-.11.27-.75-1.12-.36Zm-2.11,4,0,0L9,62l-.05.06,0,.06-.05.06-.05.06,0,.06-.05.06,0,.06-.05.06-.05.06,0,.06-.05.07-.09.1.89.77,0,0,.06-.07.05-.06.06-.07.05-.06.05-.07,0-.06L9.66,63,9.71,63l0-.06.05-.07,0-.06.05-.06,0-.07.05,0-.94-.71ZM34.74,37.63l4.33,3.7a.62.62,0,0,1,.2.4.6.6,0,0,1-.14.43l-.07.07-4.32,3.69,4.49,3.78,9.28-7.92-9.28-7.93-4.49,3.78ZM14,62.11l14.26-12.2-4-3.49-8.11,6.76c-.1.64-.17,1.31-.25,2A17,17,0,0,1,14,62.11Zm10.24-25,4-3.49L14,21.44a17.05,17.05,0,0,1,1.88,7c.08.64.15,1.31.25,1.95Zm0,7.75L28,41.78l-3.72-3.11-3.58,3.11Zm.89-7L28.9,41l4-3.39-3.76-3.21Zm7.77,8-4-3.39-3.74,3.12,4,3.48Zm-3.11-4.16,4,3.39,4-3.39-4-3.38Z"/></g></svg>