<svg width="461" height="460" viewBox="0 0 461 460" fill="none" xmlns="http://www.w3.org/2000/svg">
<g clip-path="url(#clip0_2879_14)">
<path opacity="0.6" d="M461.06 460.13H-0.0403442V1.42L1.41965 0L3.87967 2.4H5.38965V3.91L457.6 456.06L458.93 455.87V457.38L461.39 459.84L461.06 460.13ZM383.19 455.87L248.81 321.49L216.07 340.49L237.27 361.74L265.97 390.43L331.25 455.89L383.19 455.87ZM22.1897 354.09L64.1197 200.16L45.1897 181.55L22.1897 354.09ZM32.9597 168.69L5.25967 141V376.79L32.9597 168.69ZM36.8697 355.48L90.3596 226.33L75.7197 211.7L36.8697 355.48ZM40.9697 382.78L39.9697 385.05L116.6 252.5L101.27 237.24L40.9697 382.78ZM46.3297 389.84L136.66 272.61L122.34 258.3L46.3297 389.84ZM250.2 386.12L234.93 370.8L103.23 425.1L250.2 386.12ZM109.2 438.21L279.85 415.76L261.85 397.76L109.2 438.21ZM224.15 360.33L208.57 344.76L75.0897 421.76L224.15 360.33ZM203.06 339L188.99 325L74.2497 413.29L72.3596 414.74L203.06 339ZM83.9697 387L178.52 314.48L167.67 303.7L83.9697 387ZM158.17 294L146.94 282.71L72.5697 379L158.17 294ZM210.27 334.74L243.2 315.82L145.55 218.27L126.55 251.06L210.27 334.74ZM319.71 456.06L292.4 428.75L88.0597 455.87L85.0597 456.06H319.71ZM83.9196 455.87L83.5397 452.02C83.4111 450.003 83.137 447.998 82.7197 446.02L81.3997 441.73C80.9597 439.84 80.5197 437.82 79.9497 435.87L78.3097 431.33C77.5497 429.33 76.7997 427.48 75.9797 425.72L74.3997 422.06L15.9196 455.86L83.9196 455.87ZM70.7997 415.26L68.7997 412.11C67.5396 410.4 66.4097 408.83 65.2097 407.31L62.0497 403.91C60.6696 402.39 59.2797 400.91 57.8297 399.62L54.2297 396.34C52.7197 395.08 51.0797 393.94 49.4397 392.75L46.1597 390.41L12.0297 449.25L70.7997 415.26ZM5.19968 445.26L39.1396 386.5L35.6096 384.86C33.8997 384.04 32.0696 383.35 30.0497 382.59L25.6997 381.02C23.8697 380.45 22.0397 380.02 19.8997 379.5L15.1096 378.56C13.2697 378.24 11.2596 377.93 9.16965 377.74L5.16965 377.36L5.19968 445.26ZM5.38965 129.82L120.76 245.25L139.68 212.33L5.19968 78.13L5.38965 129.82ZM5.19968 15.05L5.38965 66.76L394.52 455.87H446.52L5.19968 15.05Z" fill="url(#paint0_radial_2879_14)" fill-opacity="0.5"/>
</g>
<defs>
<radialGradient id="paint0_radial_2879_14" cx="0" cy="0" r="1" gradientUnits="userSpaceOnUse" gradientTransform="translate(230.69 230.06) scale(361.72)">
<stop stop-color="#C3C7D5"/>
<stop offset="0.77" stop-color="#C3C7D5" stop-opacity="0"/>
</radialGradient>
<clipPath id="clip0_2879_14">
<rect width="460.06" height="459.94" fill="white" transform="matrix(-1 0 0 1 460.06 0)"/>
</clipPath>
</defs>
</svg>
