<svg width="921" height="461" viewBox="0 0 921 461" fill="none" xmlns="http://www.w3.org/2000/svg">
<g clip-path="url(#clip0_2879_23)">
<path opacity="0.6" d="M0.169766 0L0.00976562 0.16L2.46977 2.55V4.07H4.00977L456.26 456.22V457.73H457.77L460.17 460.13L462.63 457.73H464.14V456.22L916.35 4.07L917.68 4.26V2.74L920.14 0.28L919.85 0H0.169766ZM355.52 35.79L226.27 89.26L211.64 74.63L355.52 35.79ZM200.1 63.09L181.17 44.49L354.17 21.49L200.1 63.09ZM385.01 38.88L252.58 115.37L237.38 100.11L385.01 38.88ZM387.54 83.15L315.01 177.74L304.24 167L387.54 83.15ZM294.15 156.8L282.86 145.51L379.56 71.42L294.15 156.8ZM272.45 135.42L258.19 121.17L389.71 45.17L272.45 135.42ZM335.01 209L316.09 241.91L218.44 144.23L251.31 125.38L335.01 209ZM324.79 187.62L413.01 72.93L414.65 70.79L338.93 201.7L324.79 187.62ZM421.79 74.24L360.32 223L344.61 207.63L421.79 74.24ZM425.44 102.42L386.44 249.23L371.1 234L425.44 102.42ZM438.56 108.42L416.01 278.7L397.96 260.7L438.56 108.42ZM455.78 86.86L456.16 84.15V318.93L428.79 291.56L455.78 86.86ZM456.1 82.76L452.19 82.44C450.193 82.3044 448.21 82.0102 446.26 81.56L441.72 80.68C439.83 80.3 437.81 79.79 435.85 79.23L431.31 77.59C429.23 76.83 427.4 76.07 425.69 75.32L422.1 73.68L456.1 14.84V82.76ZM415.89 69.71L412.61 67.38C411.03 66.25 409.45 65.11 407.88 63.85L404.47 60.7C402.66 59.501 401.007 58.0799 399.55 56.47H400.18L397.01 52.88C395.69 51.36 394.49 49.66 393.36 48.08L391.01 44.87L449.79 10.87L415.89 69.71ZM445.54 4.07L386.68 38L385.11 34.54C384.29 32.77 383.53 30.88 382.77 28.92L381.38 25.14V24.64C380.82 22.81 380.44 20.98 379.93 18.77L379.01 14C378.301 12.0924 377.854 10.0976 377.68 8.07H377.75L377.37 4.07H445.54ZM376.65 4.26L168.81 31.81L141.12 4.26H376.65ZM130.14 4.26L245.58 119.66L212.65 138.58L78.0098 4.26H130.14ZM456.26 445.26L15.0098 4.26H67.1098L456.31 393.34L456.26 445.26ZM456.26 382.2L321.84 247.8L340.84 214.88L456.26 330.22V382.2ZM842.01 4.26L707.56 138.64L674.83 119.64L696.01 98.41L724.71 69.71L790.01 4.26H842.01ZM481.01 106L522.87 260L503.95 278.6L481.01 106ZM491.73 291.4L464.01 319.12V83.34L491.73 291.4ZM495.64 104.61L549.11 233.8L534.48 248.43L495.64 104.61ZM499.74 77.3L498.79 75.03L575.37 207.59L560.01 222.89L499.74 77.3ZM505.1 70.24L595.41 187.51L581.09 201.83L505.1 70.24ZM708.95 74L693.69 89.33L562.01 35L708.95 74ZM568.01 21.91L738.6 44.36L720.6 62.36L568.01 21.91ZM682.9 99.79L667.32 115.37L533.85 38.37L682.9 99.79ZM661.83 121.17L647.77 135.17L533.01 46.89L531.11 45.44L661.83 121.17ZM542.74 73.17L637.3 145.69L626.44 156.48L542.74 73.17ZM616.92 166.17L605.69 177.45L531.32 81.13L616.92 166.17ZM669.01 125.4L701.94 144.32L604.29 241.87L585.29 209.08L669.01 125.4ZM778.46 4.07L751.15 31.37L546.78 4.26L543.78 4.07H778.46ZM542.68 4.26L542.3 8.1C542.167 10.1167 541.893 12.1217 541.48 14.1L540.15 18.39C539.71 20.28 539.27 22.3 538.7 24.26L537.06 28.8C536.31 30.8 535.55 32.64 534.73 34.41L533.15 38.07L474.68 4.26H542.68ZM529.56 44.87L527.56 48.02C526.3 49.72 525.16 51.3 523.96 52.81L520.81 56.22C519.42 57.73 518.03 59.22 516.58 60.51L513.01 63.79C511.49 65.05 509.85 66.18 508.21 67.38L504.93 69.71L470.77 10.88L529.56 44.87ZM463.95 14.87L497.89 73.64L494.36 75.28C492.65 76.1 490.83 76.8 488.81 77.55L484.45 79.13C482.63 79.7 480.8 80.13 478.65 80.64L473.86 81.59C472.03 81.91 470.01 82.22 467.93 82.41L463.93 82.79L463.95 14.87ZM464.14 330.3L579.52 214.9L598.44 247.82L463.95 382L464.14 330.3ZM463.95 445.07L464.14 393.36L853.28 4.26H905.28L463.95 445.07Z" fill="url(#paint0_radial_2879_23)" fill-opacity="0.25"/>
</g>
<defs>
<radialGradient id="paint0_radial_2879_23" cx="0" cy="0" r="1" gradientUnits="userSpaceOnUse" gradientTransform="translate(460.07 230.06) scale(571.08)">
<stop stop-color="#C3C7D5"/>
<stop offset="0.77" stop-color="#C3C7D5" stop-opacity="0"/>
</radialGradient>
<clipPath id="clip0_2879_23">
<rect width="920.13" height="460.13" fill="white" transform="translate(0.00976562)"/>
</clipPath>
</defs>
</svg>
