<svg width="460" height="460" viewBox="0 0 460 460" fill="none" xmlns="http://www.w3.org/2000/svg">
<g clip-path="url(#clip0_2879_12)">
<path opacity="0.6" d="M-1.00008 460.13H460.1V1.42L458.64 0L456.18 2.4H454.67V3.91L2.45992 456.06L1.12992 455.87V457.38L-1.33008 459.84L-1.00008 460.13ZM76.8699 455.87L211.25 321.49L243.99 340.49L222.79 361.74L194.09 390.43L128.81 455.89L76.8699 455.87ZM437.87 354.09L395.94 200.16L414.87 181.55L437.87 354.09ZM427.1 168.69L454.8 141V376.79L427.1 168.69ZM423.19 355.48L369.7 226.33L384.34 211.7L423.19 355.48ZM419.09 382.78L420.09 385.05L343.46 252.5L358.79 237.24L419.09 382.78ZM413.73 389.84L323.4 272.61L337.72 258.3L413.73 389.84ZM209.86 386.12L225.13 370.8L356.83 425.1L209.86 386.12ZM350.86 438.21L180.21 415.76L198.21 397.76L350.86 438.21ZM235.91 360.33L251.49 344.76L384.97 421.76L235.91 360.33ZM257 339L271.07 325L385.81 413.29L387.7 414.74L257 339ZM376.09 387L281.54 314.48L292.39 303.7L376.09 387ZM301.89 294L313.12 282.71L387.49 379L301.89 294ZM249.79 334.74L216.86 315.82L314.51 218.27L333.51 251.06L249.79 334.74ZM140.35 456.06L167.66 428.75L372 455.87L375 456.06H140.35ZM376.14 455.87L376.52 452.02C376.648 450.003 376.923 447.998 377.34 446.02L378.66 441.73C379.1 439.84 379.54 437.82 380.11 435.87L381.75 431.33C382.51 429.33 383.26 427.48 384.08 425.72L385.66 422.06L444.14 455.86L376.14 455.87ZM389.26 415.26L391.26 412.11C392.52 410.4 393.65 408.83 394.85 407.31L398.01 403.91C399.39 402.39 400.78 400.91 402.23 399.62L405.83 396.34C407.34 395.08 408.98 393.94 410.62 392.75L413.9 390.41L448.03 449.25L389.26 415.26ZM454.86 445.26L420.92 386.5L424.45 384.86C426.16 384.04 427.99 383.35 430.01 382.59L434.36 381.02C436.19 380.45 438.02 380.02 440.16 379.5L444.95 378.56C446.79 378.24 448.8 377.93 450.89 377.74L454.89 377.36L454.86 445.26ZM454.67 129.82L339.3 245.25L320.38 212.33L454.86 78.13L454.67 129.82ZM454.86 15.05L454.67 66.76L65.5399 455.87H13.5399L454.86 15.05Z" fill="url(#paint0_radial_2879_12)" fill-opacity="0.5"/>
</g>
<defs>
<radialGradient id="paint0_radial_2879_12" cx="0" cy="0" r="1" gradientUnits="userSpaceOnUse" gradientTransform="translate(229.37 230.06) rotate(180) scale(361.72)">
<stop stop-color="#C3C7D5"/>
<stop offset="0.77" stop-color="#C3C7D5" stop-opacity="0"/>
</radialGradient>
<clipPath id="clip0_2879_12">
<rect width="460.06" height="459.94" fill="white"/>
</clipPath>
</defs>
</svg>
